<svg xmlns="http://www.w3.org/2000/svg" xmlns:xlink="http://www.w3.org/1999/xlink" version="1.1" x="0px" y="0px" viewBox="7.5 7.5 50 62.5" enable-background="new 7.5 7.5 50 50" xml:space="preserve"><path d="M9.469,27.281c-0.276,0-0.5,0.224-0.5,0.5v9.438c0,0.276,0.224,0.5,0.5,0.5s0.5-0.224,0.5-0.5v-9.438  C9.969,27.505,9.745,27.281,9.469,27.281z"/><path d="M14.587,22.969c-0.276,0-0.5,0.224-0.5,0.5v18.063c0,0.276,0.224,0.5,0.5,0.5s0.5-0.224,0.5-0.5V23.469  C15.087,23.192,14.863,22.969,14.587,22.969z"/><path d="M19.705,28.656c-0.276,0-0.5,0.224-0.5,0.5v6.688c0,0.276,0.224,0.5,0.5,0.5s0.5-0.224,0.5-0.5v-6.688  C20.205,28.88,19.981,28.656,19.705,28.656z"/><path d="M24.823,21.969c-0.276,0-0.5,0.224-0.5,0.5v20.063c0,0.276,0.224,0.5,0.5,0.5s0.5-0.224,0.5-0.5V22.469  C25.323,22.192,25.099,21.969,24.823,21.969z"/><path d="M29.941,16.188c-0.276,0-0.5,0.224-0.5,0.5v31.625c0,0.276,0.224,0.5,0.5,0.5s0.5-0.224,0.5-0.5V16.688  C30.441,16.411,30.217,16.188,29.941,16.188z"/><path d="M35.059,24.531c-0.276,0-0.5,0.224-0.5,0.5v14.938c0,0.276,0.224,0.5,0.5,0.5s0.5-0.224,0.5-0.5V25.031  C35.559,24.755,35.335,24.531,35.059,24.531z"/><path d="M40.177,11.344c-0.276,0-0.5,0.224-0.5,0.5v41.313c0,0.276,0.224,0.5,0.5,0.5s0.5-0.224,0.5-0.5V11.844  C40.677,11.567,40.453,11.344,40.177,11.344z"/><path d="M45.295,23.844c-0.276,0-0.5,0.224-0.5,0.5v16.313c0,0.276,0.224,0.5,0.5,0.5s0.5-0.224,0.5-0.5V24.344  C45.795,24.067,45.571,23.844,45.295,23.844z"/><path d="M50.413,28.016c-0.276,0-0.5,0.224-0.5,0.5v7.969c0,0.276,0.224,0.5,0.5,0.5s0.5-0.224,0.5-0.5v-7.969  C50.913,28.239,50.689,28.016,50.413,28.016z"/><path d="M55.531,29.859c-0.276,0-0.5,0.224-0.5,0.5v4.281c0,0.276,0.224,0.5,0.5,0.5s0.5-0.224,0.5-0.5v-4.281  C56.031,30.083,55.808,29.859,55.531,29.859z"/></svg>