<svg xmlns="http://www.w3.org/2000/svg" xmlns:xlink="http://www.w3.org/1999/xlink" version="1.1" x="0px" y="0px" viewBox="0 0 100 125" enable-background="new 0 0 100 100" xml:space="preserve"><path fill="#000000" d="M95.6,45.1l-6.7-4.5L82,25.5c-0.6-1.3-1.5-2.4-2.8-3.1L77,21l6.8-6.8c0.6-0.6,0.6-1.6,0-2.3  c-0.6-0.6-1.6-0.6-2.3,0l-7.3,7.3L72,17.9c-1.7-1.3-4-1.5-5.9-0.4l-7.9,4.6c-0.5,0.3-0.9,0.6-1.2,1l-9.8-14  c-0.5-0.7-1.5-0.9-2.2-0.4L10.6,31.5C9.9,32,9.6,33,10.1,33.7l5.3,9c-0.6-0.1-1.3-0.1-2,0.1c-2.4,0.7-3.9,3.2-3.3,5.8l1,4.3  C10.2,52.5,9,52.6,8,53c-2.2,0.9-3.2,3.3-2.6,6c1.5,6.3,3.1,13.2,4.3,16.1c2.6,6.3,9.6,11.2,11.7,12.6l0.6,2.7  c0.2,0.8,0.8,1.3,1.6,1.3c0.1,0,0.2,0,0.3,0c0.9-0.2,1.4-1,1.2-1.9l-0.7-3.3c-0.1-0.4-0.4-0.8-0.7-1c-0.1-0.1-8.3-5.1-11-11.5  C11.5,71,9.5,62.7,8.5,58.3c-0.2-0.9-0.1-2,0.7-2.3c0.4-0.2,0.8-0.1,1,0c0.4,0.1,0.7,0.4,0.8,0.8l3.8,10.8c0.3,0.8,1.1,1.3,2,1  c0.8-0.2,1.3-1.1,1.1-1.9l-4.5-18.9c-0.2-0.8,0.2-1.7,1-1.9c0.7-0.2,1.5,0.3,1.7,1l5.4,16.1c0.3,0.8,1.1,1.3,1.9,1.1  c0.8-0.2,1.3-1,1.2-1.8l-3.1-19.4c-0.2-0.9,0.4-1.8,1.2-2c0.8-0.2,1.7,0.4,1.9,1.3l4.4,18.8c0.2,0.8,1,1.4,1.8,1.2  c0.8-0.1,1.4-0.9,1.3-1.7l-1.5-16.4c-0.1-1,0.6-2,1.5-2.1c0.9-0.1,1.8,0.6,1.9,1.6l3.5,21.3c0.1,0.7,0.7,1.3,1.5,1.3  c0.7,0.1,1.4-0.4,1.6-1.1l2.4-7.8c0.3-1,1.2-1.5,2.2-1.3c0.9,0.2,1.6,1.2,1.5,2.3c0,0,0,0.1,0,0.1l-0.6,10.8  c-0.8,6.8-6.9,13.7-7,13.8c-0.4,0.4-0.5,1-0.3,1.5l1.2,4.2c0.3,0.9,1.1,1.3,2,1.1c0.9-0.3,1.3-1.1,1.1-2l-1-3.3  c1.1-1.3,3.4-4.4,5.2-8.2c0.1,0,0.3-0.1,0.4-0.2L78,55.8c0.7-0.5,0.9-1.4,0.5-2.2l-0.6-1c0.1,0,0.2,0,0.3,0l8.7,5.7  c0.3,0.2,0.6,0.3,0.9,0.3c0.5,0,1-0.3,1.3-0.7c0.5-0.7,0.3-1.7-0.5-2.2l-9-5.9c0,0,0,0,0,0l0,0c0,0-0.1,0-0.1,0  c-0.1,0-0.1-0.1-0.2-0.1c-0.1,0-0.1,0-0.2,0c0,0-0.1,0-0.1,0c-0.1,0-0.2,0-0.2,0c0,0-0.1,0-0.1,0c-8.4,0-11.8-9.3-11.9-9.7l-2.9-8.3  c-0.2-0.6-0.2-1.3,0.1-2c0.3-0.6,0.8-1.1,1.5-1.3c1.3-0.4,2.8,0.2,3.2,1.5c0,0.1,0.1,0.2,0.1,0.2l3.1,5.6c0.2,0.3,0.5,0.6,0.9,0.7  l2,0.7c0.8,0.3,1.8-0.1,2.1-1c0.3-0.8-0.1-1.8-1-2.1l-1.4-0.5l-2.8-5c-0.2-0.6-0.5-1.1-0.9-1.5l3.8-3.8l3,1.8c0.7,0.4,1.2,1,1.5,1.7  l6.9,15.3c0.1,0.2,0.2,0.3,0.3,0.5l6.9,4.7c0.3,0.3,0.7,0.5,1.1,0.5c0.4,0,0.8-0.2,1.1-0.5C96.2,46.8,96.2,45.8,95.6,45.1z   M65.4,44.3c1.5,2.6,4.2,5.9,8.3,7.5L75,54L49,71.4c0.1-0.6,0.2-1.2,0.3-1.8c0,0,0-0.1,0-0.1l0.6-10.8c0.3-2.6-1.4-5.1-3.8-5.7  c-2.6-0.7-5.3,0.8-6.1,3.5l-0.4,1.3l-2.4-14.5c-0.4-2.7-2.8-4.6-5.4-4.3c-1.9,0.2-3.4,1.4-4,3.1l-0.1-0.6c-0.6-2.6-3.2-4.3-5.7-3.7  c-1.8,0.4-3.1,1.8-3.6,3.5l-4.7-7.9l31.9-21.2l9.9,14.1l-1.6,3.6c-0.9,2-0.4,4.4,1.2,5.9c0.5,0.5,1,0.8,1.6,1.1l-6.9,6.9  c-0.6,0.6-0.6,1.6,0,2.3c0.3,0.3,0.7,0.5,1.1,0.5c0.4,0,0.8-0.2,1.1-0.5l5.4-5.4l0.1,1.1c0.2,2.4,2.2,4.2,4.5,4.2c0.1,0,0.2,0,0.2,0  C63.5,45.8,64.6,45.2,65.4,44.3z M60.3,37.6l1.7-1.7l1.3,3.7l-0.1,1.8c0,0.7-0.6,1.2-1.3,1.3c-0.7,0-1.3-0.5-1.4-1.2L60.3,37.6z   M68.1,25.2c-1.2-0.4-2.5-0.4-3.7,0c-1.5,0.5-2.6,1.5-3.3,2.9c-0.7,1.4-0.8,2.9-0.3,4.3L60,33.4c-0.8,0.8-2,0.8-2.8,0  c-0.6-0.6-0.8-1.5-0.4-2.3l2.4-5.3c0.2-0.4,0.5-0.7,0.8-0.9l7.9-4.6c0.7-0.4,1.6-0.3,2.3,0.2c0.1,0,0.1,0.1,0.2,0.1l1.6,1L68.1,25.2  z"/></svg>