<svg xmlns="http://www.w3.org/2000/svg" xmlns:xlink="http://www.w3.org/1999/xlink" version="1.1" x="0px" y="0px" viewBox="0 0 48 60" enable-background="new 0 0 48 48" xml:space="preserve"><g><g><ellipse fill="#000000" cx="40.4" cy="32.5" rx="3.7" ry="4"/></g><g><path fill="#000000" d="M14.9,18.6c-0.7-2.1-1.1-4.2-0.5-6.3c0.7,1,1.5,2,2.2,3c-0.1-1.8,0.9-3.7,2.4-4.6c1.9,0.5,3.4,2,5.2,2.8    c2.2,1,5,0.9,6.6,2.7C31.6,17,32,18,32.1,19l4.8-0.8c-0.3-1.8-0.5-3.7-0.8-5.5c-0.5-3.3-1.1-6.9-3.6-9c-1-0.8-2.2-1.4-3.4-1.9    c-1.5-0.6-3-1.1-4.5-1.2c-1.6-0.1-3.2,0.4-4.2,1.6c-0.1-0.4-0.7-0.6-1.1-0.7c-2.7-0.3-5.2,1.8-6.3,4.3c-1.1,2.5-1.2,5.3-1.3,8    c-0.1,1.4-0.2,2.7-0.3,4.1L14.9,18.6z"/></g><g><g><path fill="#000000" d="M24,47.4c-0.2,0-0.4-0.1-0.5-0.2c-0.2-0.1-0.3-0.3-0.3-0.6V22.2c0-0.4,0.3-0.7,0.6-0.7L41.7,19     c0.2,0,0.4,0,0.6,0.2c0.2,0.1,0.3,0.3,0.3,0.6v24.4c0,0.4-0.3,0.7-0.6,0.7l-17.8,2.5C24.1,47.4,24,47.4,24,47.4z M24.7,22.9v22.9     L41,43.5V20.6L24.7,22.9z"/></g><g><path fill="#000000" d="M24,47.4c0,0-0.1,0-0.1,0L6.1,44.9c-0.4-0.1-0.6-0.4-0.6-0.7V19.7c0-0.2,0.1-0.4,0.3-0.6     C5.9,19,6.1,19,6.3,19l17.8,2.5c0.4,0.1,0.6,0.4,0.6,0.7v24.4c0,0.2-0.1,0.4-0.3,0.6C24.4,47.3,24.2,47.4,24,47.4z M7,43.5     l16.3,2.3V22.9L7,20.6V43.5z"/></g></g><g><ellipse fill="#000000" cx="7.6" cy="32.5" rx="3.7" ry="4"/></g></g></svg>