<svg xmlns="http://www.w3.org/2000/svg" xmlns:xlink="http://www.w3.org/1999/xlink" version="1.1" x="0px" y="0px" viewBox="-2184.292 342.249 100 125" enable-background="new -2184.292 342.249 100 100" xml:space="preserve"><g><path d="M-2127.375,387.048c-0.391-0.613-1.209-0.794-1.826-0.409c-0.014,0.009-1.387,0.85-3.624,0.85   c-2.241,0-3.724-0.844-3.768-0.869c-0.624-0.375-1.435-0.174-1.815,0.45c-0.38,0.626-0.181,1.441,0.445,1.821   c0.084,0.051,2.094,1.25,5.137,1.25c3.012,0,4.858-1.141,5.058-1.272C-2127.156,388.473-2126.984,387.662-2127.375,387.048z"/></g><path d="M-2104.807,413.375c0,0-3.666-12.923-2.839-25.284c0.087-1.305,0.268-2.601,0.365-3.904  c1.374-18.406-2.253-39.096-26.873-34.82c-27.826,4.833-25.775,38.814-19.229,57.603c0.004,0.012,0.009,0.022,0.012,0.034  c0.276,0.79,0.568,1.575,0.877,2.352c0.435,1.095,0.883,2.119,1.339,3.066c-2.445,6.282-3.866,13.935-3.866,22.282h6  c0-5.822,0.788-11.346,2.149-16.158c3.546,4.241,6.922,6.454,6.922,6.454s-5.676-17.047,3.438-22.433  c1.201-0.6,2.448-0.928,3.726-0.928c2.029,0,3.983,0.813,5.792,2.271c9.199,7.854-0.19,28.078-0.19,28.078s5.408-2.513,9.114-10.983  c0.97,4.2,1.519,8.846,1.519,13.699h6c0-3.205-0.215-6.304-0.61-9.267c-0.661-5.803-0.379-11.946,0.226-17.403  C-2107.782,411.609-2104.807,413.375-2104.807,413.375z M-2132.787,394.821c-7.901,0.001-14.664-5.004-17.353-12.036  c0.027-0.066,0.057-0.132,0.084-0.198c1.467,2.109,4.102,3.405,7.38,3.405c5.655,0,9.035-4.066,9.035-7.997  c0-0.067-0.007-0.128-0.008-0.193h1.206c-0.001,0.066-0.008,0.127-0.008,0.193c0,3.931,3.379,7.997,9.035,7.997  c4.842,0,8.289-2.817,8.617-6.925c0.083,0.214,0.172,0.428,0.252,0.641C-2116.24,388.314-2123.773,394.821-2132.787,394.821z   M-2141.913,375.734l-3.718,6.199c-0.281,0.469-0.778,0.729-1.288,0.729c-0.263,0-0.528-0.068-0.77-0.214  c-0.71-0.426-0.941-1.347-0.515-2.058l3.718-6.199c0.426-0.71,1.348-0.942,2.058-0.515  C-2141.717,374.103-2141.487,375.023-2141.913,375.734z M-2139.531,374.744c0.42-0.713,1.338-0.952,2.054-0.532  c0.714,0.42,0.952,1.34,0.532,2.054l-3.864,6.568c-0.28,0.475-0.78,0.739-1.294,0.739c-0.258,0-0.52-0.066-0.759-0.207  c-0.714-0.42-0.952-1.34-0.532-2.054L-2139.531,374.744z M-2117.687,376.266l-3.864,6.568c-0.28,0.475-0.78,0.739-1.294,0.739  c-0.258,0-0.52-0.066-0.759-0.207c-0.714-0.42-0.952-1.34-0.532-2.054l3.864-6.568c0.42-0.713,1.339-0.952,2.054-0.532  C-2117.505,374.632-2117.267,375.552-2117.687,376.266z M-2122.616,375.928l-3.774,6.199c-0.282,0.464-0.776,0.72-1.283,0.72  c-0.266,0-0.535-0.07-0.778-0.219c-0.708-0.431-0.932-1.354-0.501-2.062l3.774-6.199c0.431-0.707,1.353-0.933,2.061-0.501  C-2122.41,374.297-2122.186,375.22-2122.616,375.928z M-2130.828,358.981c5.559,3.738,9.589,8.227,12.503,12.972  c-1.243-0.415-2.891-0.624-5.091-0.624c-5.068,0-7.905,1.436-8.756,4.473h-1.749c-0.85-3.037-3.688-4.473-8.756-4.473  c-0.524,0-1.01,0.015-1.474,0.038C-2140.679,366.196-2136.317,361.731-2130.828,358.981z"/></svg>